# This file uses centimeters as units for non-parametric coordinates.

mtllib Ground_Plane.mtl
g default
v -18.762588 -5.327327 15.490610
v 12.218631 -5.327327 15.490610
v -18.762588 -5.327327 -15.490610
v 12.218631 -5.327327 -15.490610
vt 0.000000 0.000000
vt 1.000000 0.000000
vt 0.000000 1.000000
vt 1.000000 1.000000
vn 0.000000 1.000000 0.000000
vn 0.000000 1.000000 0.000000
vn 0.000000 1.000000 0.000000
vn 0.000000 1.000000 0.000000
s off
g Ground_Plane
usemtl initialShadingGroup
f 1/1/1 2/2/2 4/4/3 3/3/4
