# This file uses centimeters as units for non-parametric coordinates.

mtllib Table.mtl
g default
v -13.560924 0.332699 7.060101
v 3.364306 0.332699 7.060101
v -13.560924 0.493889 7.060101
v 3.364306 0.493889 7.060101
v -13.560924 0.493889 -7.060101
v 3.364306 0.493889 -7.060101
v -13.560924 0.332699 -7.060101
v 3.364306 0.332699 -7.060101
v 2.737610 -5.363123 -6.736198
v 2.700680 -5.363123 -6.808678
v 2.643159 -5.363123 -6.866198
v 2.570679 -5.363123 -6.903128
v 2.490335 -5.363123 -6.915854
v 2.409991 -5.363123 -6.903128
v 2.337511 -5.363123 -6.866198
v 2.279990 -5.363123 -6.808678
v 2.243060 -5.363123 -6.736197
v 2.230335 -5.363123 -6.655853
v 2.243060 -5.363123 -6.575509
v 2.279990 -5.363123 -6.503029
v 2.337511 -5.363123 -6.445509
v 2.409991 -5.363123 -6.408578
v 2.490335 -5.363123 -6.395853
v 2.570679 -5.363123 -6.408578
v 2.643159 -5.363123 -6.445509
v 2.700679 -5.363123 -6.503029
v 2.737610 -5.363123 -6.575509
v 2.750335 -5.363123 -6.655853
v 2.737610 0.429381 -6.736198
v 2.700680 0.429381 -6.808678
v 2.643159 0.429381 -6.866198
v 2.570679 0.429381 -6.903128
v 2.490335 0.429381 -6.915854
v 2.409991 0.429381 -6.903128
v 2.337511 0.429381 -6.866198
v 2.279990 0.429381 -6.808678
v 2.243060 0.429381 -6.736197
v 2.230335 0.429381 -6.655853
v 2.243060 0.429381 -6.575509
v 2.279990 0.429381 -6.503029
v 2.337511 0.429381 -6.445509
v 2.409991 0.429381 -6.408578
v 2.490335 0.429381 -6.395853
v 2.570679 0.429381 -6.408578
v 2.643159 0.429381 -6.445509
v 2.700679 0.429381 -6.503029
v 2.737610 0.429381 -6.575509
v 2.750335 0.429381 -6.655853
v 2.737610 -5.363123 6.143803
v 2.700680 -5.363123 6.071323
v 2.643159 -5.363123 6.013803
v 2.570679 -5.363123 5.976873
v 2.490335 -5.363123 5.964148
v 2.409991 -5.363123 5.976873
v 2.337511 -5.363123 6.013803
v 2.279990 -5.363123 6.071323
v 2.243060 -5.363123 6.143804
v 2.230335 -5.363123 6.224148
v 2.243060 -5.363123 6.304492
v 2.279990 -5.363123 6.376972
v 2.337511 -5.363123 6.434492
v 2.409991 -5.363123 6.471423
v 2.490335 -5.363123 6.484148
v 2.570679 -5.363123 6.471423
v 2.643159 -5.363123 6.434492
v 2.700679 -5.363123 6.376972
v 2.737610 -5.363123 6.304492
v 2.750335 -5.363123 6.224148
v 2.737610 0.429381 6.143803
v 2.700680 0.429381 6.071323
v 2.643159 0.429381 6.013803
v 2.570679 0.429381 5.976873
v 2.490335 0.429381 5.964148
v 2.409991 0.429381 5.976873
v 2.337511 0.429381 6.013803
v 2.279990 0.429381 6.071323
v 2.243060 0.429381 6.143804
v 2.230335 0.429381 6.224148
v 2.243060 0.429381 6.304492
v 2.279990 0.429381 6.376972
v 2.337511 0.429381 6.434492
v 2.409991 0.429381 6.471423
v 2.490335 0.429381 6.484148
v 2.570679 0.429381 6.471423
v 2.643159 0.429381 6.434492
v 2.700679 0.429381 6.376972
v 2.737610 0.429381 6.304492
v 2.750335 0.429381 6.224148
v -12.715152 -5.363123 -6.736198
v -12.752082 -5.363123 -6.808678
v -12.809602 -5.363123 -6.866198
v -12.882082 -5.363123 -6.903128
v -12.962426 -5.363123 -6.915854
v -13.042770 -5.363123 -6.903128
v -13.115251 -5.363123 -6.866198
v -13.172771 -5.363123 -6.808678
v -13.209701 -5.363123 -6.736197
v -13.222426 -5.363123 -6.655853
v -13.209701 -5.363123 -6.575509
v -13.172771 -5.363123 -6.503029
v -13.115251 -5.363123 -6.445509
v -13.042770 -5.363123 -6.408578
v -12.962426 -5.363123 -6.395853
v -12.882082 -5.363123 -6.408578
v -12.809602 -5.363123 -6.445509
v -12.752082 -5.363123 -6.503029
v -12.715152 -5.363123 -6.575509
v -12.702426 -5.363123 -6.655853
v -12.715152 0.429381 -6.736198
v -12.752082 0.429381 -6.808678
v -12.809602 0.429381 -6.866198
v -12.882082 0.429381 -6.903128
v -12.962426 0.429381 -6.915854
v -13.042770 0.429381 -6.903128
v -13.115251 0.429381 -6.866198
v -13.172771 0.429381 -6.808678
v -13.209701 0.429381 -6.736197
v -13.222426 0.429381 -6.655853
v -13.209701 0.429381 -6.575509
v -13.172771 0.429381 -6.503029
v -13.115251 0.429381 -6.445509
v -13.042770 0.429381 -6.408578
v -12.962426 0.429381 -6.395853
v -12.882082 0.429381 -6.408578
v -12.809602 0.429381 -6.445509
v -12.752082 0.429381 -6.503029
v -12.715152 0.429381 -6.575509
v -12.702426 0.429381 -6.655853
v -12.715152 -5.363123 6.143803
v -12.752082 -5.363123 6.071323
v -12.809602 -5.363123 6.013803
v -12.882082 -5.363123 5.976873
v -12.962426 -5.363123 5.964148
v -13.042770 -5.363123 5.976873
v -13.115251 -5.363123 6.013803
v -13.172771 -5.363123 6.071323
v -13.209701 -5.363123 6.143804
v -13.222426 -5.363123 6.224148
v -13.209701 -5.363123 6.304492
v -13.172771 -5.363123 6.376972
v -13.115251 -5.363123 6.434492
v -13.042770 -5.363123 6.471423
v -12.962426 -5.363123 6.484148
v -12.882082 -5.363123 6.471423
v -12.809602 -5.363123 6.434492
v -12.752082 -5.363123 6.376972
v -12.715152 -5.363123 6.304492
v -12.702426 -5.363123 6.224148
v -12.715152 0.429381 6.143803
v -12.752082 0.429381 6.071323
v -12.809602 0.429381 6.013803
v -12.882082 0.429381 5.976873
v -12.962426 0.429381 5.964148
v -13.042770 0.429381 5.976873
v -13.115251 0.429381 6.013803
v -13.172771 0.429381 6.071323
v -13.209701 0.429381 6.143804
v -13.222426 0.429381 6.224148
v -13.209701 0.429381 6.304492
v -13.172771 0.429381 6.376972
v -13.115251 0.429381 6.434492
v -13.042770 0.429381 6.471423
v -12.962426 0.429381 6.484148
v -12.882082 0.429381 6.471423
v -12.809602 0.429381 6.434492
v -12.752082 0.429381 6.376972
v -12.715152 0.429381 6.304492
v -12.702426 0.429381 6.224148
vt 0.497852 0.006593
vt 0.000000 0.013272
vt 0.991582 0.003370
vt 0.501055 0.009565
vt 0.996795 0.412789
vt 0.506267 0.418983
vt 1.000000 0.415900
vt 0.503312 0.422215
vt 0.152211 0.469490
vt 0.159397 0.468305
vt 0.243797 0.979963
vt 0.236612 0.981148
vt 0.166582 0.467120
vt 0.250982 0.978778
vt 0.173767 0.465934
vt 0.258168 0.977592
vt 0.180953 0.464749
vt 0.265353 0.976407
vt 0.188138 0.463564
vt 0.272538 0.975222
vt 0.195323 0.462379
vt 0.279724 0.974037
vt 0.202509 0.461193
vt 0.286909 0.972851
vt 0.209694 0.460008
vt 0.294095 0.971666
vt 0.216879 0.458823
vt 0.301280 0.970481
vt 0.224065 0.457638
vt 0.308465 0.969296
vt 0.231250 0.456452
vt 0.315651 0.968110
vt 0.238436 0.455267
vt 0.322836 0.966925
vt 0.245621 0.454082
vt 0.330022 0.965740
vt 0.252806 0.452896
vt 0.337207 0.964555
vt 0.259992 0.451711
vt 0.344392 0.963369
vt 0.267177 0.450526
vt 0.351578 0.962184
vt 0.274362 0.449341
vt 0.358763 0.960999
vt 0.281548 0.448155
vt 0.365948 0.959813
vt 0.288733 0.446970
vt 0.229426 0.982333
vt 0.394784 0.978717
vt 0.387592 0.979858
vt 0.450236 0.444875
vt 0.313577 0.466543
vt 0.524252 0.958190
vt 0.443044 0.446015
vt 0.517059 0.959330
vt 0.435851 0.447155
vt 0.509866 0.960470
vt 0.428659 0.448296
vt 0.502674 0.961611
vt 0.421466 0.449436
vt 0.495481 0.962751
vt 0.414273 0.450577
vt 0.488288 0.963892
vt 0.407081 0.451717
vt 0.481096 0.965032
vt 0.399888 0.452858
vt 0.473903 0.966172
vt 0.392695 0.453998
vt 0.466711 0.967313
vt 0.385503 0.455138
vt 0.459518 0.968453
vt 0.378310 0.456279
vt 0.452325 0.969594
vt 0.371118 0.457419
vt 0.445133 0.970734
vt 0.363925 0.458560
vt 0.437940 0.971875
vt 0.356732 0.459700
vt 0.430747 0.973015
vt 0.349540 0.460841
vt 0.423555 0.974155
vt 0.342347 0.461981
vt 0.416362 0.975296
vt 0.335154 0.463121
vt 0.409169 0.976436
vt 0.327962 0.464262
vt 0.401977 0.977577
vt 0.320769 0.465402
vt 0.670542 0.443656
vt 0.677824 0.443654
vt 0.677925 0.962227
vt 0.670642 0.962228
vt 0.685106 0.443653
vt 0.539558 0.962254
vt 0.546740 0.443680
vt 0.546840 0.962252
vt 0.554022 0.443678
vt 0.554123 0.962251
vt 0.561304 0.443677
vt 0.561405 0.962249
vt 0.568587 0.443675
vt 0.568687 0.962248
vt 0.575870 0.443674
vt 0.575970 0.962246
vt 0.583152 0.443672
vt 0.583252 0.962245
vt 0.590434 0.443671
vt 0.590535 0.962244
vt 0.597717 0.443670
vt 0.597817 0.962242
vt 0.604999 0.443668
vt 0.605100 0.962241
vt 0.612282 0.443667
vt 0.612382 0.962240
vt 0.619564 0.443666
vt 0.619665 0.962238
vt 0.626846 0.443664
vt 0.626947 0.962237
vt 0.634129 0.443663
vt 0.634230 0.962235
vt 0.641411 0.443661
vt 0.641512 0.962234
vt 0.648694 0.443660
vt 0.648794 0.962232
vt 0.655976 0.443659
vt 0.656077 0.962231
vt 0.663259 0.443657
vt 0.663360 0.962229
vt 0.830231 0.441723
vt 0.837513 0.441724
vt 0.691851 0.960292
vt 0.830218 0.960296
vt 0.699146 0.441720
vt 0.699133 0.960293
vt 0.706429 0.441720
vt 0.706416 0.960293
vt 0.713711 0.441720
vt 0.713698 0.960293
vt 0.720994 0.441721
vt 0.720981 0.960293
vt 0.728276 0.441721
vt 0.728263 0.960293
vt 0.735559 0.441721
vt 0.735546 0.960294
vt 0.742841 0.441721
vt 0.742828 0.960294
vt 0.750124 0.441721
vt 0.750111 0.960294
vt 0.757406 0.441721
vt 0.757393 0.960294
vt 0.764689 0.441722
vt 0.764676 0.960294
vt 0.771971 0.441722
vt 0.771958 0.960294
vt 0.779254 0.441722
vt 0.779240 0.960295
vt 0.786536 0.441722
vt 0.786523 0.960295
vt 0.793819 0.441723
vt 0.793805 0.960295
vt 0.801101 0.441723
vt 0.801088 0.960295
vt 0.808384 0.441723
vt 0.808370 0.960295
vt 0.815666 0.441723
vt 0.815653 0.960296
vt 0.822948 0.441723
vt 0.822935 0.960296
vt 0.005456 0.428616
vt 0.994536 0.000000
vt 0.691864 0.441720
vt 0.837500 0.960296
vt 0.539457 0.443681
vt 0.685207 0.962225
vt 0.531444 0.957049
vt 0.306384 0.467683
vt 0.145026 0.470676
vt 0.373134 0.958628
vn 0.000000 0.000000 1.000000
vn 0.000000 0.000000 1.000000
vn 0.000000 0.000000 1.000000
vn 0.000000 0.000000 1.000000
vn 0.000000 1.000000 0.000000
vn 0.000000 1.000000 0.000000
vn 0.000000 1.000000 0.000000
vn 0.000000 1.000000 0.000000
vn 0.000000 0.000000 -1.000000
vn 0.000000 0.000000 -1.000000
vn 0.000000 0.000000 -1.000000
vn 0.000000 0.000000 -1.000000
vn 0.000000 -1.000000 0.000000
vn 0.000000 -1.000000 0.000000
vn 0.000000 -1.000000 0.000000
vn 0.000000 -1.000000 0.000000
vn 1.000000 0.000000 0.000000
vn 1.000000 0.000000 0.000000
vn 1.000000 0.000000 0.000000
vn 1.000000 0.000000 0.000000
vn -1.000000 0.000000 0.000000
vn -1.000000 0.000000 0.000000
vn -1.000000 0.000000 0.000000
vn -1.000000 0.000000 0.000000
vn 0.951057 0.000000 -0.309016
vn 0.809016 0.000000 -0.587786
vn 0.809016 0.000000 -0.587786
vn 0.951057 0.000000 -0.309016
vn 0.587787 0.000000 -0.809016
vn 0.587787 0.000000 -0.809016
vn 0.309019 0.000000 -0.951056
vn 0.309019 0.000000 -0.951056
vn 0.000000 0.000000 -1.000000
vn 0.000000 0.000000 -1.000000
vn -0.309019 0.000000 -0.951056
vn -0.309019 0.000000 -0.951056
vn -0.587787 0.000000 -0.809016
vn -0.587787 0.000000 -0.809016
vn -0.809018 0.000000 -0.587784
vn -0.809018 0.000000 -0.587784
vn -0.951057 0.000000 -0.309016
vn -0.951057 0.000000 -0.309016
vn -1.000000 0.000000 0.000000
vn -1.000000 0.000000 0.000000
vn -0.951057 0.000000 0.309016
vn -0.951057 0.000000 0.309016
vn -0.809018 0.000000 0.587784
vn -0.809018 0.000000 0.587784
vn -0.587787 0.000000 0.809016
vn -0.587787 0.000000 0.809016
vn -0.309019 0.000000 0.951056
vn -0.309019 0.000000 0.951056
vn 0.000000 0.000000 1.000000
vn 0.000000 0.000000 1.000000
vn 0.309019 0.000000 0.951056
vn 0.309019 0.000000 0.951056
vn 0.587787 0.000000 0.809016
vn 0.587787 0.000000 0.809016
vn 0.809018 0.000000 0.587783
vn 0.809018 0.000000 0.587783
vn 0.951056 0.000000 0.309018
vn 0.951056 0.000000 0.309018
vn 1.000000 0.000000 0.000001
vn 1.000000 0.000000 0.000001
vn 0.951057 0.000000 -0.309016
vn 0.809016 0.000000 -0.587786
vn 0.809016 0.000000 -0.587786
vn 0.951057 0.000000 -0.309016
vn 0.587787 0.000000 -0.809016
vn 0.587787 0.000000 -0.809016
vn 0.309019 0.000000 -0.951056
vn 0.309019 0.000000 -0.951056
vn 0.000000 0.000000 -1.000000
vn 0.000000 0.000000 -1.000000
vn -0.309019 0.000000 -0.951056
vn -0.309019 0.000000 -0.951056
vn -0.587787 0.000000 -0.809016
vn -0.587787 0.000000 -0.809016
vn -0.809018 0.000000 -0.587784
vn -0.809018 0.000000 -0.587784
vn -0.951057 0.000000 -0.309016
vn -0.951057 0.000000 -0.309016
vn -1.000000 0.000000 0.000000
vn -1.000000 0.000000 0.000000
vn -0.951057 0.000000 0.309016
vn -0.951057 0.000000 0.309016
vn -0.809018 0.000000 0.587784
vn -0.809018 0.000000 0.587784
vn -0.587787 0.000000 0.809016
vn -0.587787 0.000000 0.809016
vn -0.309019 0.000000 0.951056
vn -0.309019 0.000000 0.951056
vn 0.000000 0.000000 1.000000
vn 0.000000 0.000000 1.000000
vn 0.309019 0.000000 0.951056
vn 0.309019 0.000000 0.951056
vn 0.587787 0.000000 0.809016
vn 0.587787 0.000000 0.809016
vn 0.809018 0.000000 0.587783
vn 0.809018 0.000000 0.587783
vn 0.951056 0.000000 0.309018
vn 0.951056 0.000000 0.309018
vn 1.000000 0.000000 0.000001
vn 1.000000 0.000000 0.000001
vn 0.951056 0.000000 -0.309019
vn 0.809018 0.000000 -0.587783
vn 0.809018 0.000000 -0.587783
vn 0.951056 0.000000 -0.309019
vn 0.587787 0.000000 -0.809016
vn 0.587787 0.000000 -0.809016
vn 0.309018 0.000000 -0.951056
vn 0.309018 0.000000 -0.951056
vn 0.000000 0.000000 -1.000000
vn 0.000000 0.000000 -1.000000
vn -0.309018 0.000000 -0.951056
vn -0.309018 0.000000 -0.951056
vn -0.587787 0.000000 -0.809016
vn -0.587787 0.000000 -0.809016
vn -0.809020 0.000000 -0.587781
vn -0.809020 0.000000 -0.587781
vn -0.951056 0.000000 -0.309019
vn -0.951056 0.000000 -0.309019
vn -1.000000 0.000000 0.000000
vn -1.000000 0.000000 0.000000
vn -0.951056 0.000000 0.309019
vn -0.951056 0.000000 0.309019
vn -0.809020 0.000000 0.587781
vn -0.809020 0.000000 0.587781
vn -0.587787 0.000000 0.809016
vn -0.587787 0.000000 0.809016
vn -0.309018 0.000000 0.951056
vn -0.309018 0.000000 0.951056
vn 0.000000 0.000000 1.000000
vn 0.000000 0.000000 1.000000
vn 0.309018 0.000000 0.951056
vn 0.309018 0.000000 0.951056
vn 0.587787 0.000000 0.809016
vn 0.587787 0.000000 0.809016
vn 0.809020 0.000000 0.587781
vn 0.809020 0.000000 0.587781
vn 0.951056 0.000000 0.309019
vn 0.951056 0.000000 0.309019
vn 1.000000 0.000000 -0.000000
vn 1.000000 0.000000 -0.000000
vn 0.951056 0.000000 -0.309019
vn 0.809018 0.000000 -0.587783
vn 0.809018 0.000000 -0.587783
vn 0.951056 0.000000 -0.309019
vn 0.587787 0.000000 -0.809016
vn 0.587787 0.000000 -0.809016
vn 0.309018 0.000000 -0.951056
vn 0.309018 0.000000 -0.951056
vn 0.000000 0.000000 -1.000000
vn 0.000000 0.000000 -1.000000
vn -0.309018 0.000000 -0.951056
vn -0.309018 0.000000 -0.951056
vn -0.587787 0.000000 -0.809016
vn -0.587787 0.000000 -0.809016
vn -0.809020 0.000000 -0.587781
vn -0.809020 0.000000 -0.587781
vn -0.951056 0.000000 -0.309019
vn -0.951056 0.000000 -0.309019
vn -1.000000 0.000000 0.000000
vn -1.000000 0.000000 0.000000
vn -0.951056 0.000000 0.309019
vn -0.951056 0.000000 0.309019
vn -0.809020 0.000000 0.587781
vn -0.809020 0.000000 0.587781
vn -0.587787 0.000000 0.809016
vn -0.587787 0.000000 0.809016
vn -0.309018 0.000000 0.951056
vn -0.309018 0.000000 0.951056
vn 0.000000 0.000000 1.000000
vn 0.000000 0.000000 1.000000
vn 0.309018 0.000000 0.951056
vn 0.309018 0.000000 0.951056
vn 0.587787 0.000000 0.809016
vn 0.587787 0.000000 0.809016
vn 0.809020 0.000000 0.587781
vn 0.809020 0.000000 0.587781
vn 0.951056 0.000000 0.309019
vn 0.951056 0.000000 0.309019
vn 1.000000 0.000000 -0.000000
vn 1.000000 0.000000 -0.000000
s off
g Table
usemtl initialShadingGroup
f 1/1/1 2/170/2 4/3/3 3/4/4
f 3/4/5 4/3/6 6/5/7 5/6/8
f 5/6/9 6/5/10 8/7/11 7/8/12
f 7/8/13 8/169/14 2/2/15 1/1/16
f 2/170/17 8/7/18 6/5/19 4/3/20
f 7/8/21 1/1/22 3/4/23 5/6/24
s 1
g textureEditorIsolateSelectSet Table
f 9/9/25 10/10/26 30/11/27 29/12/28
f 10/10/26 11/13/29 31/14/30 30/11/27
f 11/13/29 12/15/31 32/16/32 31/14/30
f 12/15/31 13/17/33 33/18/34 32/16/32
f 13/17/33 14/19/35 34/20/36 33/18/34
f 14/19/35 15/21/37 35/22/38 34/20/36
f 15/21/37 16/23/39 36/24/40 35/22/38
f 16/23/39 17/25/41 37/26/42 36/24/40
f 17/25/41 18/27/43 38/28/44 37/26/42
f 18/27/43 19/29/45 39/30/46 38/28/44
f 19/29/45 20/31/47 40/32/48 39/30/46
f 20/31/47 21/33/49 41/34/50 40/32/48
f 21/33/49 22/35/51 42/36/52 41/34/50
f 22/35/51 23/37/53 43/38/54 42/36/52
f 23/37/53 24/39/55 44/40/56 43/38/54
f 24/39/55 25/41/57 45/42/58 44/40/56
f 25/41/57 26/43/59 46/44/60 45/42/58
f 26/43/59 27/45/61 47/46/62 46/44/60
f 27/45/61 28/47/63 48/178/64 47/46/62
f 28/177/63 9/9/25 29/12/28 48/48/64
s 2
f 49/49/65 50/50/66 70/176/67 69/52/68
f 50/175/66 51/53/69 71/54/70 70/51/67
f 51/53/69 52/55/71 72/56/72 71/54/70
f 52/55/71 53/57/73 73/58/74 72/56/72
f 53/57/73 54/59/75 74/60/76 73/58/74
f 54/59/75 55/61/77 75/62/78 74/60/76
f 55/61/77 56/63/79 76/64/80 75/62/78
f 56/63/79 57/65/81 77/66/82 76/64/80
f 57/65/81 58/67/83 78/68/84 77/66/82
f 58/67/83 59/69/85 79/70/86 78/68/84
f 59/69/85 60/71/87 80/72/88 79/70/86
f 60/71/87 61/73/89 81/74/90 80/72/88
f 61/73/89 62/75/91 82/76/92 81/74/90
f 62/75/91 63/77/93 83/78/94 82/76/92
f 63/77/93 64/79/95 84/80/96 83/78/94
f 64/79/95 65/81/97 85/82/98 84/80/96
f 65/81/97 66/83/99 86/84/100 85/82/98
f 66/83/99 67/85/101 87/86/102 86/84/100
f 67/85/101 68/87/103 88/88/104 87/86/102
f 68/87/103 49/49/65 69/52/68 88/88/104
s 3
f 89/89/105 90/90/106 110/91/107 109/92/108
f 90/90/106 91/93/109 111/174/110 110/91/107
f 91/173/109 92/95/111 112/96/112 111/94/110
f 92/95/111 93/97/113 113/98/114 112/96/112
f 93/97/113 94/99/115 114/100/116 113/98/114
f 94/99/115 95/101/117 115/102/118 114/100/116
f 95/101/117 96/103/119 116/104/120 115/102/118
f 96/103/119 97/105/121 117/106/122 116/104/120
f 97/105/121 98/107/123 118/108/124 117/106/122
f 98/107/123 99/109/125 119/110/126 118/108/124
f 99/109/125 100/111/127 120/112/128 119/110/126
f 100/111/127 101/113/129 121/114/130 120/112/128
f 101/113/129 102/115/131 122/116/132 121/114/130
f 102/115/131 103/117/133 123/118/134 122/116/132
f 103/117/133 104/119/135 124/120/136 123/118/134
f 104/119/135 105/121/137 125/122/138 124/120/136
f 105/121/137 106/123/139 126/124/140 125/122/138
f 106/123/139 107/125/141 127/126/142 126/124/140
f 107/125/141 108/127/143 128/128/144 127/126/142
f 108/127/143 89/89/105 109/92/108 128/128/144
s 4
f 129/129/145 130/130/146 150/172/147 149/132/148
f 130/171/146 131/133/149 151/134/150 150/131/147
f 131/133/149 132/135/151 152/136/152 151/134/150
f 132/135/151 133/137/153 153/138/154 152/136/152
f 133/137/153 134/139/155 154/140/156 153/138/154
f 134/139/155 135/141/157 155/142/158 154/140/156
f 135/141/157 136/143/159 156/144/160 155/142/158
f 136/143/159 137/145/161 157/146/162 156/144/160
f 137/145/161 138/147/163 158/148/164 157/146/162
f 138/147/163 139/149/165 159/150/166 158/148/164
f 139/149/165 140/151/167 160/152/168 159/150/166
f 140/151/167 141/153/169 161/154/170 160/152/168
f 141/153/169 142/155/171 162/156/172 161/154/170
f 142/155/171 143/157/173 163/158/174 162/156/172
f 143/157/173 144/159/175 164/160/176 163/158/174
f 144/159/175 145/161/177 165/162/178 164/160/176
f 145/161/177 146/163/179 166/164/180 165/162/178
f 146/163/179 147/165/181 167/166/182 166/164/180
f 147/165/181 148/167/183 168/168/184 167/166/182
f 148/167/183 129/129/145 149/132/148 168/168/184
